# xmcd CD database file
#
# Track frame offsets:
#	150
#	16750
#	39055
#	60049
#	81267
#	103239
#	125444
#	146636
#	168024
#	191408
#	210659
#	234984
#	253221
#	274971
#	298296
#
# Disc length: 4280 seconds
#
# Revision: 0
# Processed by: cddbd v1.4PL0 Copyright (c) Steve Scherf et al.
# Submitted via: CDex 1.51
#
DISCID=cd10b60f
DTITLE=varios - Salsa Erotica
DYEAR=2001
DGENRE=Salsa
TTITLE0=Nunca podre - Suprema corte
TTITLE1=El amor mas grande - Suprema corte
TTITLE2=Que nunca falte tu amor - Los niches
TTITLE3=si supieras - Los niches
TTITLE4=Que alguien me diga - Gilberto Santa rosa
TTITLE5=Cuanto te ame - Gilberto Santa rosa
TTITLE6=Malherido - Gilberto santa rosa
TTITLE7=Mia - Eddie santiago
TTITLE8=Tu fidelidad - Hansel Camacho
TTITLE9=Verdades - Hansel Camacho
TTITLE10=eres - Hansel Camacho
TTITLE11=escombros - Suprema Corte
TTITLE12=Quiero quedarme en ti - Suprema corte
TTITLE13=Que locura enamorarme de ti - Eddie Santiago
TTITLE14=Me fallastes - Eddie Santiago
EXTD=YEAR: 2001
EXTT0=
EXTT1=
EXTT2=
EXTT3=
EXTT4=
EXTT5=
EXTT6=
EXTT7=
EXTT8=
EXTT9=
EXTT10=
EXTT11=
EXTT12=
EXTT13=
EXTT14=
PLAYORDER=
